<svg width="31" height="31" viewBox="0 0 31 31" fill="none" xmlns="http://www.w3.org/2000/svg">
<rect width="31" height="31" fill="#E5E5E5"/>
<path d="M15.5 31C24.0604 31 31 24.0604 31 15.5C31 6.93959 24.0604 0 15.5 0C6.93959 0 0 6.93959 0 15.5C0 24.0604 6.93959 31 15.5 31Z" fill="white" fill-opacity="0.8"/>
<path d="M21.8434 10.1493C21.4768 9.78493 21.0417 9.4959 20.5627 9.2987C20.0837 9.1015 19.5704 9 19.0519 9C18.5335 9 18.0201 9.1015 17.5411 9.2987C17.0621 9.4959 16.627 9.78493 16.2605 10.1493L15.4998 10.9051L14.7392 10.1493C13.9988 9.41366 12.9947 9.00038 11.9477 9.00038C10.9007 9.00038 9.89659 9.41366 9.15626 10.1493C8.41592 10.8849 8 11.8827 8 12.923C8 13.9634 8.41592 14.9611 9.15626 15.6967L9.91691 16.4526L15.4998 22L21.0827 16.4526L21.8434 15.6967C22.21 15.3326 22.5009 14.9001 22.6994 14.4242C22.8979 13.9483 23 13.4382 23 12.923C23 12.4078 22.8979 11.8977 22.6994 11.4218C22.5009 10.9459 22.21 10.5135 21.8434 10.1493Z" stroke="#2B2B2B" stroke-linecap="round" stroke-linejoin="round"/>
<path d="M18.0053 14.9163C18.0846 15.0963 18.9664 17.49 19.1808 17.4066C19.6575 17.2212 19.4943 15.3931 19.4943 15.9046C19.4943 16.2941 19.6575 16.7756 19.8861 17.0931C20.131 17.4332 20.2749 16.7026 20.3171 16.5663C20.3621 16.4208 20.5324 15.4259 20.5914 15.9177C20.6155 16.1186 20.7481 15.7112 20.7481 15.6216" stroke="#2B2B2B" stroke-linecap="round" stroke-linejoin="round"/>
<path d="M19.5726 14.3678C19.5726 14.6846 19.5054 14.9801 19.4943 15.2907C19.4817 15.6423 19.5692 15.3383 19.651 15.1514C19.8492 14.6984 20.1136 14.2834 20.3215 13.8366C20.5089 13.4337 20.513 14.3075 20.513 14.4113C20.513 14.7744 20.4954 15.2957 20.6349 15.6347C20.7169 15.8338 21.1422 14.6347 21.1835 14.4984C21.4403 13.6509 21.3306 16.2227 21.375 15.1253C21.3788 15.0315 21.5318 14.3907 21.5318 14.6029C21.5318 15.2521 21.601 14.3561 21.6493 14.1414C21.8331 13.3243 22.002 12.473 22.002 11.6293C22.002 11.1036 21.9224 12.3651 21.9236 12.5044C21.9277 12.9774 22.0803 13.4335 22.0803 13.8976C22.0803 14.0756 22.1349 14.3602 22.2371 14.5071C22.3002 14.5978 22.3789 14.1429 22.3894 14.0586C22.467 13.4384 22.6907 12.4792 22.2196 11.9558C21.8997 11.6004 21.5389 11.2029 21.2357 10.8239C21.087 10.6379 21.1698 10.1746 21.018 10.0228C20.8413 9.8461 20.6018 9.87914 20.3911 9.78337C19.6784 9.4594 18.7716 9.58746 18.001 9.58746C17.3202 9.58746 16.9176 10.2884 16.6557 10.8413C16.469 11.2355 16.9421 11.8514 17.3784 11.8514C17.9732 11.8514 18.0298 10.1063 17.5308 10.5844C17.1368 10.962 17.044 11.5812 17.078 12.1082C17.0994 12.4402 17.6122 12.3671 17.7528 12.1648C17.9363 11.9007 18.0371 11.3201 17.8051 11.0459C17.6408 10.8519 17.2944 10.9186 17.2217 11.1635C17.0491 11.7448 17.1586 12.1069 17.5656 12.4826C17.9039 12.7949 18.2603 12.2812 18.371 12.0081C18.547 11.5741 18.9252 10.7416 18.6671 10.2623C18.5718 10.0853 18.3001 10.0878 18.2056 10.2579C17.9586 10.7024 17.9047 11.2635 17.927 11.7643C17.9407 12.0729 18.2844 12.0617 18.4363 11.8514C18.6511 11.554 18.6322 11.2069 18.6322 10.8587C18.6322 10.4789 18.3373 11.5263 18.3275 11.6467C18.2982 12.0059 18.2103 12.4018 18.6148 12.5305C19.1557 12.7026 19.3092 11.4443 19.368 11.1374C19.5504 10.1849 19.1859 11.216 19.1199 11.5814C19.0451 11.9951 18.9686 12.4116 18.9022 12.8266C18.8954 12.8687 18.9177 13.4439 18.9805 13.1836C19.1804 12.3554 19.2592 11.3708 19.2592 10.5191C19.2592 10.3703 19.1737 9.93635 19.1808 10.3276C19.188 10.7247 19.3375 11.1004 19.3375 11.4987C19.3375 11.8746 19.3375 10.747 19.3375 10.3711C19.3375 9.70891 19.4025 10.7825 19.4246 10.9371C19.5535 11.8396 19.6483 12.9451 20.008 13.7844C20.1807 14.1873 20.0428 12.908 20.0428 12.4696C20.0428 12.3388 20.0006 11.6066 19.9819 11.712C19.8524 12.4401 19.9295 13.3611 20.0602 14.0804C20.0677 14.1214 20.1974 14.6081 20.1996 14.5593C20.2222 14.039 20.1996 13.5128 20.1996 12.992C20.1996 12.5566 20.1715 11.2515 20.1996 11.6859C20.2257 12.0906 20.365 12.5741 20.5478 12.9398C20.7485 13.3411 20.5914 12.0431 20.5914 11.5945C20.5914 11.5097 20.5797 10.4887 20.5914 10.9806C20.6115 11.8242 20.7216 12.6707 20.7525 13.5188C20.761 13.7547 20.9048 14.3517 20.9048 13.7844C20.9048 13.5086 20.9048 13.2329 20.9048 12.9572C20.9048 12.6794 20.99 13.5073 21.0616 13.7757C21.2025 14.3042 21.1674 13.2583 21.1574 13.1487C21.1286 12.8362 21.1284 12.5209 21.018 12.2214C20.8539 11.7759 20.5612 10.7911 19.9993 10.6889C19.8003 10.6527 19.4036 10.5143 19.3201 10.3102C19.2949 10.2486 19.38 10.9745 19.4159 11.1286C19.4826 11.4154 19.4834 11.708 19.5422 11.995C19.5903 12.2303 19.7221 12.3969 19.7294 12.6437C19.7534 13.4617 19.8077 14.3738 19.8077 15.1514C19.8077 15.7976 19.5826 16.3013 18.9892 16.6404C18.5124 16.9128 18.4755 15.4308 18.4755 15.1906C18.4755 14.3808 18.4755 13.571 18.4755 12.7613C18.4755 11.5698 18.3145 17.5109 18.5103 16.3356C18.6567 15.4572 18.6194 14.5933 18.7193 13.7191C18.7288 13.6361 18.8498 13.0966 18.9457 13.3055C19.2287 13.9213 19.1808 14.9593 19.1808 15.4388C19.1808 16.315 18.9678 16.818 18.4363 17.4675C18.1922 17.7659 18.064 18.2213 17.8138 18.4863C17.6839 18.6238 17.6817 18.7006 17.6048 18.8738C17.5589 18.9771 17.4873 18.9168 17.5221 18.8085C17.5961 18.5781 17.7759 18.321 17.9444 18.1467C18.1498 17.9342 18.3207 17.7221 18.4712 17.4588C18.5303 17.3553 18.7773 17.0475 18.789 16.9538C18.8268 16.6514 18.573 17.5243 18.4842 17.8158C18.437 17.9711 18.3971 18.457 18.3971 18.2947C18.3971 18.1103 18.4605 17.9447 18.5191 17.7723C18.5598 17.6524 18.8728 16.8779 18.9501 17.3413C18.9886 17.5724 19.0992 17.0351 18.9283 17.2586C18.8228 17.3966 18.7479 17.559 18.6497 17.7026C18.5947 17.783 18.6035 18.0579 18.5495 17.9769C18.2899 17.5875 18.3231 16.5981 18.3188 16.1353C18.3145 15.6762 18.2404 15.2232 18.2404 14.7683C18.2404 14.3968 17.8171 14.0996 17.7659 13.7408C17.7235 13.4441 17.6135 13.1894 17.6135 12.8788C17.6135 12.4812 17.6135 13.6741 17.6135 14.0717C17.6135 14.388 17.6919 14.6647 17.6919 14.9773C17.6919 15.2083 17.6102 15.6967 17.7702 15.8567" stroke="#2B2B2B" stroke-linecap="round" stroke-linejoin="round"/>
<path d="M14.1654 12.7221C14.0408 11.8851 14.3594 12.9237 14.4615 13.1749C14.6844 13.7236 14.7804 13.5105 14.9578 12.9702C15.0154 12.7948 15.5631 11.4381 15.6195 11.6076C15.7311 11.9423 15.7692 12.292 15.872 12.6263C15.9025 12.7254 16.0048 12.2232 16.0462 12.1039C16.19 11.6893 16.1246 12.6683 16.1246 12.8266C16.1246 12.9131 16.1246 13.0633 16.1246 12.844C16.1246 12.4347 16.1246 12.0255 16.1246 11.6163C16.1246 10.9853 16.1246 11.1842 16.1246 11.6641C16.1246 11.7776 16.2594 12.4844 16.2769 12.2649C16.2846 12.1687 16.2175 11.5093 16.3945 11.8688C16.6979 12.4851 16.6964 13.3996 16.7471 14.0848C16.788 14.6364 16.7493 13.5876 16.7515 13.4448C16.7536 13.3083 16.8057 12.7737 16.9082 13.1836C16.9734 13.4443 17.0134 13.7122 17.0649 13.9759C17.0905 14.1065 17.1027 14.5651 17.1956 14.2023C17.4105 13.362 17.8157 12.6003 18.1621 11.8209C18.2967 11.518 18.5865 11.3635 18.8674 11.2157C19.0625 11.113 19.1793 10.9118 19.3767 10.8021C19.5906 10.6833 19.8254 10.6383 20.0428 10.5104C20.3187 10.3482 20.2039 10.2388 20.513 10.4321C21.0117 10.7437 20.9146 11.6878 21.2619 12.1343C21.8355 12.872 21.0892 13.5645 20.6698 14.1936C20.3514 14.6711 20.0187 15.3079 19.5639 15.6651C19.0941 16.0343 18.8116 16.6064 18.3362 16.9538C18.039 17.171 17.8923 17.4691 17.7267 17.7767C17.467 18.259 17.6135 17.3253 17.6135 17.1193C17.6135 16.5838 17.6135 16.0483 17.6135 15.5128C17.6135 15.2922 17.6135 15.0716 17.6135 14.851C17.6135 13.9765 17.3275 16.5785 17.2565 17.4501C17.2454 17.587 17.1822 19.239 17.1477 18.2904C17.1196 17.5189 17.1433 16.742 17.1433 15.9699C17.1433 15.3314 17.1433 14.6928 17.1433 14.0543C17.1433 14.0349 17.1433 13.677 17.1433 13.7844C17.1433 14.4751 17.1433 15.1659 17.1433 15.8567C17.1433 16.5649 17.1433 18.6895 17.1433 17.9813C17.1433 16.7104 16.9571 15.4424 16.9082 14.1718C16.8864 13.6048 16.8794 13.0212 16.7558 12.4652C16.7213 12.3096 16.6924 12.7778 16.6688 12.9354C16.5604 13.6576 16.5346 14.3798 16.499 15.1079C16.4648 15.807 16.5945 17.8844 16.4206 17.2063C16.0954 15.9379 16.0799 14.5386 15.9374 13.2402C15.9101 12.9918 15.962 12.2722 15.8503 12.4957C15.6903 12.8156 15.8111 13.4591 15.8111 13.8061C15.8111 14.5144 15.8553 15.2373 15.8111 15.9438C15.7598 16.764 15.3371 14.3632 15.2234 13.5493C15.206 13.4255 15.1518 12.1019 15.01 12.0168C14.9894 12.0044 14.6606 14.1717 14.6356 14.3939C14.6243 14.4943 14.5101 15.755 14.4832 15.3517C14.3863 13.8969 14.3222 9.52262 14.3222 10.9806C14.3222 11.4648 14.3115 11.9815 14.4745 12.4434C14.5218 12.5773 14.6813 12.8691 14.7314 12.5741C14.8094 12.1145 14.837 11.5939 14.788 11.1286C14.7641 10.9013 14.5271 10.903 14.8098 11.0938C14.8872 11.1461 15.1212 11.4894 15.0274 11.3899C14.8566 11.2084 14.6164 11.0202 14.4876 10.8108C14.3948 10.6601 14.1207 10.3823 13.9303 10.3711C13.5737 10.3501 13.3029 10.1303 12.9899 10.0185C12.7176 9.92122 12.4914 9.77604 12.2498 9.62229C11.6988 9.27166 11.0856 9.77753 10.639 10.0402C10.4829 10.1321 10.0769 10.2872 10.012 10.4495C9.92141 10.6761 9.74725 10.8014 9.58539 10.9632C9.498 11.0506 9.16822 11.2928 9.15003 11.3899C9.13371 11.4769 8.97832 11.5215 8.93234 11.625C8.87192 11.7609 8.94807 11.8593 8.83656 11.982C8.58611 12.2575 8.73634 14.2313 9.1152 12.7395C9.19633 12.42 9.21456 12.117 9.32417 11.7991C9.33632 11.7639 9.49452 11.34 9.54185 11.4465C9.67136 11.7378 9.59323 12.0966 9.716 12.3912C9.79345 12.5771 9.93935 11.6672 9.94674 11.6598C10.0737 11.5329 10.3255 13.9576 10.3255 11.5553C10.3255 11.302 10.2994 10.7693 10.3299 11.3637C10.3364 11.4905 10.4618 12.4789 10.5258 12.339C10.6879 11.9843 10.5387 11.4169 10.5606 11.0329C10.566 10.9382 10.8908 11.6872 10.9524 11.8165C11.1171 12.1623 11.0308 11.2695 11.0308 11.1374C11.0308 10.5585 11.0765 11.4442 11.0918 11.5901C11.1303 11.9586 11.1875 12.406 11.1875 11.7207C11.1875 11.3173 11.1875 10.107 11.1875 10.5104C11.1875 10.9001 11.1811 11.4683 11.3443 11.8252C11.4283 12.0091 11.4226 11.2101 11.4226 11.1286C11.4226 11.0373 11.5787 10.4498 11.6185 10.641C11.7038 11.0502 11.6537 11.4741 11.7361 11.8862C11.8121 12.2663 11.7172 11.1071 11.7753 10.7238C11.7999 10.5611 11.8022 10.0857 11.9276 10.4843C12.0707 10.9388 12.0111 11.4005 12.1105 11.8601C12.1579 12.0791 12.1676 11.2276 12.2063 11.0633C12.2063 11.0632 12.3584 11.9537 12.363 12.2084C12.3747 12.8496 12.4437 12.0097 12.4806 11.8252C12.5221 11.6177 12.5361 11.2934 12.6373 11.7207C12.7078 12.0185 12.8257 12.9235 12.8332 12.6176C12.8496 11.9462 12.7081 11.3046 12.6765 10.641C12.6599 10.2925 12.7428 11.0328 12.7548 11.1199C12.7895 11.371 12.8598 11.7961 13.0291 11.9994C13.1051 12.0905 13.0665 11.7649 13.077 11.6467C13.1069 11.3104 13.2044 10.9848 13.286 10.6585C13.2962 10.6176 13.3818 11.6181 13.3818 11.8514C13.3818 12.0085 13.3461 12.2414 13.4209 12.3912C13.4455 12.4402 13.4601 11.9003 13.4601 11.8426C13.4601 11.7451 13.3782 10.8678 13.5124 11.2593C13.7563 11.9706 13.6952 12.7123 13.6952 13.4535C13.6952 13.7693 13.852 14.6654 13.852 13.7931C13.852 13.4419 13.852 13.0907 13.852 12.7395C13.852 12.3974 13.8945 13.1655 13.8955 13.1749C13.9861 14.0158 14.0746 14.8586 14.1567 15.7C14.1964 16.1073 14.214 16.3119 14.2612 15.7087C14.2695 15.6032 14.3596 14.3486 14.4745 14.5593C14.6241 14.8336 14.5572 15.2649 14.5572 15.5607C14.5572 16.1295 14.5572 16.6984 14.5572 17.2673C14.5572 17.662 14.5572 18.0567 14.5572 18.4515C14.5572 18.6019 14.5572 18.7842 14.5572 18.495C14.5572 17.8637 14.5572 17.2325 14.5572 16.6012C14.5572 15.7345 14.7046 17.1086 14.7096 17.3021C14.7177 17.6116 14.697 17.9249 14.7183 18.2338C14.7217 18.283 14.7882 18.6112 14.7923 18.3731C14.8056 17.6154 14.7282 16.8372 14.8098 16.0831C14.8813 15.4211 14.9808 17.0055 14.9883 17.128C15.0134 17.5406 15.014 17.9584 15.0666 18.3688C15.0948 18.5883 15.1023 18.657 15.1058 18.3905C15.1106 18.0277 15.0808 16.3293 15.3801 16.1963C15.5541 16.1189 15.7212 17.5702 15.7284 17.6591C15.7442 17.8544 15.9321 19.5519 15.872 18.6082C15.822 17.8215 15.8111 15.4559 15.8111 16.2442C15.8111 16.8697 15.859 17.5044 15.8895 18.1293C15.8948 18.2388 15.9407 18.3415 16.0114 18.4254C16.0624 18.486 16.0462 18.021 16.0462 18.0074C16.0462 17.9581 16.0595 16.906 16.1289 16.9408C16.5085 17.1306 16.3597 18.5319 16.3597 18.8781C16.3597 19.2249 16.334 19.0162 16.3988 18.8346C16.4217 18.7705 16.4211 18.4731 16.4816 18.4558C16.6456 18.409 16.5948 19.4986 16.5948 19.6008C16.5948 20.4836 16.5202 19.2765 16.6383 19.074C16.8671 18.6817 16.9082 19.5151 16.9082 19.6357C16.9082 20.1041 16.8324 19.8784 16.2029 20.0275C15.8041 20.122 15.7327 20.4122 15.7327 20.7937C15.7327 20.8501 15.7422 21.2092 15.7327 20.9766C15.7112 20.45 15.6137 19.9018 15.5368 19.3788C15.4768 18.9705 15.359 18.6112 15.2712 18.2164C15.231 18.0352 15.2625 18.2291 15.2625 18.3165C15.2625 18.6779 15.2625 19.0392 15.2625 19.4006C15.2625 19.4663 15.228 20.5412 15.2974 20.5412C15.5872 20.5412 14.9597 20.0676 14.8272 19.8098C14.6384 19.4428 14.3017 18.4197 14.4832 19.4485C14.5355 19.7446 14.6968 20.0326 14.7923 20.3192C14.8531 20.5015 14.6179 19.8666 14.5747 19.775C14.4798 19.5738 14.1166 18.7682 14.1306 18.852C14.1674 19.0728 14.2438 19.7375 14.2438 19.5138C14.2438 19.1079 14.0871 18.7297 14.0871 18.3209C14.0871 17.5645 14.2596 16.4837 13.852 15.7958C13.4761 15.1614 13.6963 14.3741 13.2207 13.8192C13.0769 13.6515 12.6931 13.2512 12.6765 13.0355C12.6107 12.1804 12.6009 14.7538 12.6721 15.6085C12.7082 16.0418 12.7397 16.441 12.8942 16.858C12.9504 17.01 13.5329 17.5758 13.5385 17.3282C13.5538 16.6558 13.5395 16.0994 13.3426 15.4692C13.3266 15.418 13.2876 15.1201 13.2686 15.1427C12.9749 15.4914 13.1467 16.362 13.1467 16.7797C13.1467 17.3529 13.2515 17.9325 13.4601 18.4602C13.5347 18.6487 13.5114 18.7982 13.5428 18.987C13.5894 19.2661 13.4609 19.1866 13.1815 19.0523C12.3695 18.6619 12.3657 18.1621 12.1453 17.3631C11.9389 16.6146 11.9712 15.7754 11.9712 14.999C11.9712 14.3373 12.2063 13.6962 12.2063 13.0181C12.2063 12.7324 12.0251 12.4772 11.7013 12.5697C11.4601 12.6386 11.5794 13.5484 11.5794 13.7452C11.5794 14.6188 11.5794 15.4924 11.5794 16.3661C11.5794 16.4704 11.6493 17.1018 11.501 17.1106C11.1658 17.1303 11.1568 16.5558 11.0918 16.3443C10.866 15.6105 11.4226 14.9786 11.4226 14.2546C11.4226 13.7563 11.687 12.714 10.9524 12.8004C10.4704 12.8572 11.0027 15.2946 10.7783 15.7435C10.7134 15.8732 10.5527 15.9499 10.4997 16.1092C10.4795 16.1696 10.5116 16.5533 10.4431 16.5533C10.1415 16.5533 10.2471 15.5223 10.2471 15.3952C10.2471 14.9111 10.4352 13.9304 10.1078 13.5667C9.98209 13.427 9.77733 13.2706 9.58104 13.2706C9.25412 13.2706 9.24121 13.5738 9.03248 13.7408C8.71976 13.991 8.98517 14.394 9.13261 14.6029C9.19867 14.6964 9.69222 15.1965 9.76824 15.1775C9.81908 15.1648 9.77695 14.3164 9.77695 14.2284C9.77695 14.079 9.77695 13.9295 9.77695 13.78C9.77695 13.496 9.70097 14.0901 9.716 14.1936C9.84156 15.0586 10.5684 15.8404 11.0656 16.5185C11.3165 16.8605 11.5339 17.1197 11.858 17.3848C12.1539 17.6269 12.4843 17.8587 12.7548 18.1293C12.9183 18.2927 13.0834 18.5995 13.3034 18.5995" stroke="#2B2B2B" stroke-linecap="round" stroke-linejoin="round"/>
<path d="M15.6543 11.5466C15.879 11.541 16.4949 11.2199 16.2377 10.8892C15.938 10.5038 15.3141 11.6099 15.2277 11.7425C14.89 12.2602 14.7599 12.3303 14.1654 12.3303C13.68 12.3303 13.241 12.3462 12.8767 11.982C12.6482 11.7534 12.3493 11.6374 12.1279 11.3899C11.9712 11.2148 11.7849 10.8945 11.5793 10.7804C11.4344 10.6999 11.2777 10.5278 11.1091 10.5278C11.0323 10.5278 10.8432 10.4341 10.7957 10.4843C10.5869 10.7047 10.5887 11.1872 10.5606 11.4682" stroke="#2B2B2B" stroke-linecap="round" stroke-linejoin="round"/>
</svg>
