<svg width="31" height="31" viewBox="0 0 31 31" fill="none" xmlns="http://www.w3.org/2000/svg">
<rect width="31" height="31" fill="#E5E5E5"/>
<path d="M15.5 31C24.0604 31 31 24.0604 31 15.5C31 6.93959 24.0604 0 15.5 0C6.93959 0 0 6.93959 0 15.5C0 24.0604 6.93959 31 15.5 31Z" fill="white" fill-opacity="0.8"/>
<path d="M21.8434 10.1493C21.4768 9.78493 21.0417 9.4959 20.5627 9.2987C20.0837 9.1015 19.5704 9 19.0519 9C18.5335 9 18.0201 9.1015 17.5411 9.2987C17.0621 9.4959 16.627 9.78493 16.2605 10.1493L15.4998 10.9051L14.7392 10.1493C13.9988 9.41366 12.9947 9.00038 11.9477 9.00038C10.9007 9.00038 9.89659 9.41366 9.15626 10.1493C8.41592 10.8849 8 11.8827 8 12.923C8 13.9634 8.41592 14.9611 9.15626 15.6967L9.91691 16.4526L15.4998 22L21.0827 16.4526L21.8434 15.6967C22.21 15.3326 22.5009 14.9001 22.6994 14.4242C22.8979 13.9483 23 13.4382 23 12.923C23 12.4078 22.8979 11.8977 22.6994 11.4218C22.5009 10.9459 22.21 10.5135 21.8434 10.1493Z" stroke="#2B2B2B" stroke-linecap="round" stroke-linejoin="round"/>
</svg>
