<svg width="22" height="22" viewBox="0 0 22 22" fill="none" xmlns="http://www.w3.org/2000/svg">
<path d="M11 21.5C16.799 21.5 21.5 16.799 21.5 11C21.5 5.20101 16.799 0.5 11 0.5C5.20101 0.5 0.5 5.20101 0.5 11C0.5 16.799 5.20101 21.5 11 21.5Z" stroke="#D5E6FF"/>
<path d="M11 20C15.9706 20 20 15.9706 20 11C20 6.02944 15.9706 2 11 2C6.02944 2 2 6.02944 2 11C2 15.9706 6.02944 20 11 20Z" fill="url(#paint0_linear)"/>
<path d="M7 10.7273L10.1765 14L16 8" stroke="#595959" stroke-width="1.5"/>
<defs>
<linearGradient id="paint0_linear" x1="-1.76649" y1="10.7534" x2="10.945" y2="24.733" gradientUnits="userSpaceOnUse">
<stop stop-color="#ECF0F5"/>
<stop offset="1" stop-color="#CCD6E6"/>
</linearGradient>
</defs>
</svg>
