<svg width="22" height="22" viewBox="0 0 22 22" fill="none" xmlns="http://www.w3.org/2000/svg">
<path d="M11 21.5C16.799 21.5 21.5 16.799 21.5 11C21.5 5.20101 16.799 0.5 11 0.5C5.20101 0.5 0.5 5.20101 0.5 11C0.5 16.799 5.20101 21.5 11 21.5Z" stroke="#D8D8D8"/>
<path d="M11 19.5C15.6944 19.5 19.5 15.6944 19.5 11C19.5 6.30558 15.6944 2.5 11 2.5C6.30558 2.5 2.5 6.30558 2.5 11C2.5 15.6944 6.30558 19.5 11 19.5Z" fill="white" stroke="#D8D8D8"/>
<path d="M7 10.7273L10.1765 14L16 8" stroke="#595959" stroke-width="1.5"/>
</svg>
