<svg display="none" xmlns="http://www.w3.org/2000/svg">
    <symbol id="vk" viewBox="0 0 30 17" >
        <g>
            <path fill="white" d="M14.6996 15.9369H16.3734C16.3734 15.9369 16.8786 15.8849 17.1367 15.6241C17.3749 15.3836 17.367 14.9333 17.367 14.9333C17.367 14.9333 17.3344 12.8249 18.3764 12.5139C19.4037 12.2075 20.7235 14.5517 22.1215 15.4532C23.1793 16.1356 23.9831 15.9861 23.9831 15.9861L27.7222 15.9369C27.7222 15.9369 29.6778 15.8237 28.7504 14.38C28.6743 14.2621 28.2096 13.3114 25.9703 11.359C23.6252 9.31553 23.9396 9.64604 26.7642 6.11067C28.4835 3.95862 29.1716 2.644 28.9561 2.08139C28.7514 1.54477 27.4869 1.68681 27.4869 1.68681L23.2762 1.71095C23.2762 1.71095 22.9638 1.67103 22.7325 1.80101C22.5071 1.9282 22.3617 2.22529 22.3617 2.22529C22.3617 2.22529 21.6944 3.89085 20.8066 5.3076C18.9321 8.29707 18.1817 8.4549 17.8752 8.26922C17.1624 7.83658 17.3403 6.53217 17.3403 5.60469C17.3403 2.70713 17.809 1.49928 16.4298 1.1864C15.972 1.08335 15.6349 1.01465 14.4643 1.00351C12.9626 0.988652 11.6911 1.00722 10.9714 1.33866C10.4919 1.55869 10.1221 2.04982 10.3476 2.07767C10.6254 2.11295 11.2561 2.23736 11.5903 2.66443C12.0213 3.2159 12.0065 4.45347 12.0065 4.45347C12.0065 4.45347 12.2547 7.8635 11.4272 8.28778C10.8597 8.57745 10.0816 7.98512 8.40978 5.27232C7.5536 3.88342 6.90702 2.34784 6.90702 2.34784C6.90702 2.34784 6.78245 2.06096 6.56 1.90685C6.2901 1.72116 5.91342 1.66175 5.91342 1.66175L1.91233 1.68681C1.91233 1.68681 1.31221 1.7026 1.09174 1.9477C0.894997 2.16587 1.07592 2.61708 1.07592 2.61708C1.07592 2.61708 4.20799 9.49843 7.7543 12.966C11.007 16.1458 14.6996 15.9369 14.6996 15.9369" stroke="#2B2B2B"/>
        </g>
    </symbol>
    
    <symbol id="insta" viewBox="0 0 20 20" >
        <g>
            <path d="M16.4745 1.44287L16.2931 1.90879L16.2931 1.90879L16.4745 1.44287ZM14.436 1.06411L14.4589 0.564632L14.4589 0.564631L14.436 1.06411ZM5.5639 1.06411L5.54107 0.564631L5.54106 0.564632L5.5639 1.06411ZM3.52547 1.44287L3.70687 1.9088L3.70693 1.90878L3.52547 1.44287ZM1.44197 3.5304L0.975814 3.34956L0.9758 3.34959L1.44197 3.5304ZM1.06399 5.57284L0.564503 5.55009L0.564503 5.5501L1.06399 5.57284ZM1.06399 14.4623L0.564502 14.485L0.564503 14.485L1.06399 14.4623ZM1.44197 16.5047L0.9758 16.6855L0.975814 16.6856L1.44197 16.5047ZM3.52547 18.5923L3.70688 18.1263L3.70687 18.1263L3.52547 18.5923ZM5.56393 18.971L5.5411 19.4705H5.5411L5.56393 18.971ZM14.436 18.971L14.4589 19.4705H14.4589L14.436 18.971ZM16.4745 18.5923L16.6559 19.0582L16.656 19.0582L16.4745 18.5923ZM17.7368 17.7694L17.3829 17.4162L17.3829 17.4162L17.7368 17.7694ZM18.558 16.5047L19.0242 16.6855V16.6855L18.558 16.5047ZM18.936 14.4623L19.4355 14.485V14.485L18.936 14.4623ZM18.936 5.57284L19.4355 5.5501V5.55009L18.936 5.57284ZM18.558 3.5304L19.0242 3.34959V3.34959L18.558 3.5304ZM15.0843 5.53468C14.7276 5.53468 14.4387 5.24565 14.4387 4.88943H13.4387C13.4387 5.79817 14.1756 6.53468 15.0843 6.53468V5.53468ZM15.7298 4.88943C15.7298 5.24565 15.4409 5.53468 15.0843 5.53468V6.53468C15.993 6.53468 16.7298 5.79817 16.7298 4.88943H15.7298ZM15.0843 4.24414C15.4409 4.24414 15.7298 4.53315 15.7298 4.88943H16.7298C16.7298 3.98066 15.993 3.24414 15.0843 3.24414V4.24414ZM14.4387 4.88943C14.4387 4.53316 14.7276 4.24414 15.0843 4.24414V3.24414C14.1756 3.24414 13.4387 3.98066 13.4387 4.88943H14.4387ZM9.98723 6.30273C7.95377 6.30273 6.30505 7.95077 6.30505 9.98405H7.30505C7.30505 8.50331 8.50579 7.30273 9.98723 7.30273V6.30273ZM13.6694 9.98405C13.6694 7.95077 12.0207 6.30273 9.98723 6.30273V7.30273C11.4687 7.30273 12.6694 8.50331 12.6694 9.98405H13.6694ZM9.98723 13.6653C12.0207 13.6653 13.6694 12.0173 13.6694 9.98405H12.6694C12.6694 11.4647 11.4687 12.6653 9.98723 12.6653V13.6653ZM6.30505 9.98405C6.30505 12.0173 7.95377 13.6653 9.98723 13.6653V12.6653C8.50579 12.6653 7.30505 11.4647 7.30505 9.98405H6.30505ZM18.0907 1.91247C17.6569 1.47784 17.2323 1.20135 16.656 0.976943L16.2931 1.90879C16.7416 2.08341 17.0484 2.28367 17.3828 2.61885L18.0907 1.91247ZM16.656 0.976951C16.2192 0.806872 15.5844 0.616092 14.4589 0.564632L14.4132 1.56359C15.4283 1.61 15.9561 1.77754 16.2931 1.90879L16.656 0.976951ZM14.4589 0.564631C13.2897 0.511192 12.9334 0.5 9.99998 0.5V1.5C12.9291 1.5 13.2672 1.51121 14.4132 1.56359L14.4589 0.564631ZM9.99998 0.5C7.06658 0.5 6.71028 0.511192 5.54107 0.564631L5.58672 1.56359C6.73275 1.51121 7.07087 1.5 9.99998 1.5V0.5ZM5.54106 0.564632C4.41552 0.616092 3.78072 0.806871 3.34401 0.976958L3.70693 1.90878C4.04388 1.77754 4.57163 1.61 5.58673 1.56359L5.54106 0.564632ZM3.34406 0.976938C2.76766 1.20136 2.34305 1.47785 1.9093 1.91245L2.61709 2.61887C2.95164 2.28367 3.25839 2.08341 3.70687 1.9088L3.34406 0.976938ZM1.9093 1.91245C1.47554 2.34706 1.19971 2.7724 0.975814 3.34956L1.90812 3.71123C2.08255 3.26159 2.28255 2.95406 2.61709 2.61887L1.9093 1.91245ZM0.9758 3.34959C0.806187 3.78691 0.615848 4.42269 0.564503 5.55009L1.56347 5.59559C1.6098 4.57818 1.77709 4.04906 1.90813 3.7112L0.9758 3.34959ZM0.564503 5.5501C0.51117 6.72149 0.5 7.07843 0.5 10.0175H1.5C1.5 7.08271 1.51119 6.74387 1.56347 5.59558L0.564503 5.5501ZM0.5 10.0175C0.5 12.9567 0.51117 13.3136 0.564502 14.485L1.56347 14.4395C1.51119 13.2912 1.5 12.9524 1.5 10.0175H0.5ZM0.564503 14.485C0.615848 15.6124 0.806187 16.2482 0.9758 16.6855L1.90813 16.3239C1.77709 15.9861 1.6098 15.4569 1.56347 14.4395L0.564503 14.485ZM0.975814 16.6856C1.19971 17.2627 1.47554 17.6881 1.9093 18.1227L2.61709 17.4163C2.28255 17.0811 2.08255 16.7735 1.90812 16.3239L0.975814 16.6856ZM1.9093 18.1227C2.34305 18.5573 2.76766 18.8338 3.34406 19.0582L3.70687 18.1263C3.25839 17.9517 2.95164 17.7515 2.61709 17.4163L1.9093 18.1227ZM3.34405 19.0582C3.78072 19.2282 4.4155 19.419 5.5411 19.4705L5.58677 18.4715C4.57165 18.4251 4.04389 18.2576 3.70688 18.1263L3.34405 19.0582ZM5.5411 19.4705C6.71012 19.5239 7.06638 19.5351 9.99998 19.5351V18.5351C7.07067 18.5351 6.73259 18.5239 5.58677 18.4715L5.5411 19.4705ZM9.99998 19.5351C12.9336 19.5351 13.2898 19.5239 14.4589 19.4705L14.4132 18.4715C13.2674 18.5239 12.9293 18.5351 9.99998 18.5351V19.5351ZM14.4589 19.4705C15.5845 19.419 16.2192 19.2282 16.6559 19.0582L16.2931 18.1263C15.9561 18.2576 15.4283 18.4251 14.4132 18.4715L14.4589 19.4705ZM16.656 19.0582C17.2323 18.8338 17.657 18.5573 18.0907 18.1226L17.3829 17.4162C17.0484 17.7515 16.7416 17.9517 16.2931 18.1263L16.656 19.0582ZM18.0907 18.1226C18.5244 17.6881 18.8003 17.2627 19.0242 16.6855L18.0918 16.3239C17.9174 16.7735 17.7174 17.0811 17.3829 17.4162L18.0907 18.1226ZM19.0242 16.6855C19.1938 16.2482 19.3842 15.6125 19.4355 14.485L18.4365 14.4395C18.3902 15.4569 18.2229 15.9861 18.0918 16.3239L19.0242 16.6855ZM19.4355 14.485C19.4888 13.3136 19.5 12.9567 19.5 10.0175H18.5C18.5 12.9524 18.4888 13.2912 18.4365 14.4395L19.4355 14.485ZM19.5 10.0175C19.5 7.07843 19.4888 6.72149 19.4355 5.5501L18.4365 5.59558C18.4888 6.74387 18.5 7.08271 18.5 10.0175H19.5ZM19.4355 5.55009C19.3842 4.42267 19.1938 3.78689 19.0242 3.34959L18.0918 3.7112C18.2229 4.04908 18.3902 4.5782 18.4365 5.59559L19.4355 5.55009ZM19.0242 3.34959C18.8003 2.77239 18.5244 2.34704 18.0907 1.91245L17.3829 2.61887C17.7174 2.95408 17.9174 3.2616 18.0918 3.7112L19.0242 3.34959Z" fill="#2B2B2B"/>
        </g>
    </symbol>

    <symbol id="ok" viewBox="0 0 15 22" >
        <g>
            <path d="M8.84277 10.8926L8.73985 10.4033L8.73948 10.4034L8.84277 10.8926ZM12.8791 4.95435L13.3648 4.83543L13.3647 4.83497L12.8791 4.95435ZM6.43513 1.18205L6.30764 0.698577L6.30743 0.698633L6.43513 1.18205ZM7.01063 3.65756L7.13684 4.14137L7.13806 4.14105L7.01063 3.65756ZM10.2068 5.41763L10.6877 5.28074L10.6876 5.28026L10.2068 5.41763ZM8.35142 8.39328L8.23006 7.90823L8.22984 7.90829L8.35142 8.39328ZM11.373 11.6839L11.1329 11.2453L11.1313 11.2462L11.373 11.6839ZM4.07201 11.7385L3.83614 12.1793L3.83732 12.18L4.07201 11.7385ZM11.7122 11.4722L11.4357 11.0557L11.4356 11.0557L11.7122 11.4722ZM12.9394 11.0376L12.9653 10.5383L12.9635 10.5382L12.9394 11.0376ZM12.4298 14.2015L12.6418 14.6544L12.6421 14.6542L12.4298 14.2015ZM10.1506 14.9793L10.2446 15.4704L10.2446 15.4704L10.1506 14.9793ZM9.02354 15.2397L8.88765 14.7585L8.28419 14.9289L8.5847 15.4793L9.02354 15.2397ZM11.7886 17.8693L12.1206 17.4954L12.1206 17.4954L11.7886 17.8693ZM12.7067 18.6924L12.3667 19.0589L12.3668 19.0591L12.7067 18.6924ZM11.599 21.0615L11.5471 21.5588L11.5479 21.5589L11.599 21.0615ZM7.72418 17.9027L8.09694 17.5694L7.84952 17.2927L7.51303 17.4494L7.72418 17.9027ZM5.98594 19.3679L6.33627 19.7246L5.98594 19.3679ZM3.79175 21.0514L3.71736 20.557L3.71724 20.557L3.79175 21.0514ZM2.69067 18.5964L3.02513 18.9681L3.02836 18.9652L2.69067 18.5964ZM6.33066 15.2629L6.66835 15.6316L7.20705 15.1383L6.55218 14.8146L6.33066 15.2629ZM5.28731 15.0005L5.3836 14.5098L5.28731 15.0005ZM4.50734 14.8276L4.36444 15.3068L4.36535 15.307L4.50734 14.8276ZM2.61202 11.0427L2.65887 10.5449L2.65801 10.5448L2.61202 11.0427ZM3.71532 11.5244L3.44855 11.9472L3.44856 11.9472L3.71532 11.5244ZM8.9457 11.3819C11.6268 10.8179 14.1845 8.18306 13.3648 4.83543L12.3935 5.07327C13.0413 7.71913 11.0352 9.92046 8.73985 10.4033L8.9457 11.3819ZM6.30743 0.698633C4.43359 1.19365 3.16937 2.19563 2.47369 3.43618C1.78163 4.67028 1.67821 6.0946 2.03811 7.39195C2.7594 9.9921 5.36251 12.1384 8.94607 11.3818L8.73948 10.4034C5.71896 11.0411 3.5949 9.26297 3.00172 7.12464C2.70437 6.05275 2.79689 4.90433 3.34591 3.92531C3.89131 2.95273 4.91332 2.10122 6.56284 1.66547L6.30743 0.698633ZM13.3647 4.83497C12.7354 2.27547 9.85528 -0.236936 6.30764 0.698577L6.56263 1.66552C9.47617 0.89722 11.8733 2.95779 12.3936 5.07373L13.3647 4.83497ZM7.13806 4.14105C8.43112 3.80025 9.46431 4.63895 9.72607 5.55501L10.6876 5.28026C10.2983 3.91786 8.77668 2.67502 6.8832 3.17407L7.13806 4.14105ZM8.22984 7.90829C6.84535 8.25538 5.90162 7.47755 5.62372 6.53335C5.48324 6.05604 5.51889 5.55111 5.74547 5.12876C5.96767 4.71456 6.39801 4.33412 7.13684 4.14137L6.88441 3.17375C5.90965 3.42805 5.23353 3.9677 4.86426 4.65603C4.49937 5.33621 4.45854 6.11623 4.66441 6.81569C5.0792 8.22503 6.51947 9.36802 8.47301 8.87827L8.22984 7.90829ZM9.72593 5.55452C10.0422 6.6655 9.2183 7.66097 8.23006 7.90823L8.47279 8.87833C9.83739 8.53689 11.2031 7.09116 10.6877 5.28074L9.72593 5.55452ZM11.1313 11.2462C9.0939 12.3712 6.37086 12.3942 4.30669 11.297L3.83732 12.18C6.19962 13.4357 9.28106 13.4102 11.6147 12.1216L11.1313 11.2462ZM11.4356 11.0557C11.3203 11.1323 11.227 11.1939 11.1329 11.2453L11.6131 12.1225C11.7509 12.0471 11.8797 11.9612 11.9888 11.8888L11.4356 11.0557ZM12.9635 10.5382C12.25 10.5036 11.7738 10.8312 11.4357 11.0557L11.9887 11.8888C12.3333 11.66 12.5616 11.5199 12.9152 11.537L12.9635 10.5382ZM12.6421 14.6542C13.5245 14.2403 14.1208 13.8045 14.471 13.3471C14.8357 12.8708 14.934 12.3652 14.7924 11.8969C14.6593 11.4571 14.3381 11.1278 14.0164 10.9132C13.6953 10.699 13.3106 10.5562 12.9653 10.5383L12.9135 11.5369C13.045 11.5438 13.2589 11.61 13.4615 11.7451C13.6634 11.8799 13.791 12.0403 13.8352 12.1864C13.8708 12.3041 13.8748 12.4808 13.677 12.7391C13.4648 13.0163 13.0305 13.3675 12.2175 13.7488L12.6421 14.6542ZM10.2446 15.4704C10.8714 15.3504 11.3652 15.2519 12.6418 14.6544L12.2179 13.7487C11.0247 14.3071 10.6115 14.382 10.0567 14.4882L10.2446 15.4704ZM9.15944 15.7208C9.62957 15.5881 9.94811 15.5271 10.2446 15.4704L10.0567 14.4882C9.75288 14.5463 9.4003 14.6137 8.88765 14.7585L9.15944 15.7208ZM12.1206 17.4954C11.5794 17.0149 10.9389 16.4463 10.4107 15.9557C10.1463 15.7102 9.91448 15.4882 9.73917 15.3091C9.65135 15.2194 9.5815 15.1442 9.53034 15.0847C9.4731 15.0182 9.45881 14.9935 9.46239 15L8.5847 15.4793C8.63459 15.5706 8.7077 15.6618 8.77215 15.7368C8.84267 15.8188 8.9288 15.9108 9.02449 16.0085C9.21621 16.2044 9.46148 16.4389 9.73017 16.6884C10.2682 17.1881 10.9176 17.7646 11.4567 18.2432L12.1206 17.4954ZM13.0468 18.3258C12.8418 18.1356 12.5042 17.836 12.1206 17.4954L11.4567 18.2432C11.8447 18.5877 12.1718 18.8782 12.3667 19.0589L13.0468 18.3258ZM11.5479 21.5589C12.3689 21.6434 13.1609 21.2688 13.5435 20.6203C13.7385 20.2898 13.8214 19.8936 13.7397 19.4788C13.6585 19.0669 13.4229 18.6745 13.0466 18.3257L12.3668 19.0591C12.6225 19.296 12.7264 19.5092 12.7586 19.6722C12.7901 19.8323 12.7601 19.9802 12.6822 20.1121C12.519 20.3887 12.1252 20.613 11.6502 20.5641L11.5479 21.5589ZM7.35143 18.2359C7.60211 18.5163 8.37992 19.2985 9.19755 20.0211C9.60714 20.3831 10.0369 20.7392 10.4229 21.0132C10.6156 21.15 10.8057 21.2723 10.983 21.3653C11.1501 21.4531 11.3483 21.5381 11.5471 21.5588L11.6509 20.5642C11.6531 20.5645 11.6366 20.5627 11.5969 20.5481C11.5587 20.5342 11.5092 20.5122 11.4479 20.48C11.3245 20.4152 11.1742 20.3202 11.0016 20.1977C10.6571 19.9532 10.2575 19.6233 9.85979 19.2718C9.0629 18.5675 8.31482 17.8131 8.09694 17.5694L7.35143 18.2359ZM6.33627 19.7246C6.65995 19.4068 6.96712 19.1053 7.25055 18.856C7.54125 18.6002 7.7702 18.4328 7.93533 18.3559L7.51303 17.4494C7.20978 17.5907 6.89075 17.8406 6.59 18.1052C6.28198 18.3762 5.95422 18.6983 5.63561 19.0111L6.33627 19.7246ZM3.86614 21.5459C4.09784 21.511 4.31932 21.4095 4.51529 21.2936C4.71571 21.1751 4.9193 21.0235 5.11887 20.8586C5.5162 20.5305 5.93935 20.1144 6.33627 19.7246L5.63561 19.0111C5.23022 19.4092 4.83958 19.7923 4.48205 20.0876C4.30418 20.2345 4.14507 20.3508 4.00632 20.4328C3.86312 20.5175 3.76897 20.5492 3.71736 20.557L3.86614 21.5459ZM2.35621 18.2248C1.95337 18.5873 1.70013 18.9951 1.60714 19.4219C1.51349 19.8517 1.59081 20.2652 1.78885 20.6107C2.17864 21.2908 3.0078 21.6752 3.86625 21.5458L3.71724 20.557C3.22871 20.6306 2.82275 20.4036 2.65645 20.1134C2.57646 19.9739 2.54549 19.8125 2.58422 19.6348C2.6236 19.454 2.74339 19.2216 3.02512 18.9681L2.35621 18.2248ZM5.99297 14.8941L2.35297 18.2277L3.02836 18.9652L6.66835 15.6316L5.99297 14.8941ZM5.19103 15.4911C5.40317 15.5328 5.60584 15.5726 5.77917 15.6134C5.96471 15.6571 6.06942 15.6915 6.10913 15.7111L6.55218 14.8146C6.39838 14.7386 6.19115 14.683 6.00827 14.64C5.81317 14.5941 5.59092 14.5505 5.3836 14.5098L5.19103 15.4911ZM4.36535 15.307C4.59129 15.374 4.90712 15.4354 5.19103 15.4911L5.3836 14.5098C5.08016 14.4503 4.81933 14.3986 4.64933 14.3482L4.36535 15.307ZM2.65801 10.5448C2.14914 10.4978 1.62619 10.6567 1.22627 10.9483C0.824233 11.2414 0.499579 11.7075 0.5 12.2894C0.500423 12.874 0.828306 13.4403 1.44497 13.938C2.06017 14.4345 3.00504 14.9014 4.36444 15.3068L4.65024 14.3485C3.35663 13.9627 2.54811 13.5432 2.07303 13.1598C1.59942 12.7775 1.50013 12.4701 1.5 12.2887C1.49987 12.1047 1.60127 11.9125 1.81541 11.7563C2.03166 11.5986 2.315 11.5174 2.56604 11.5405L2.65801 10.5448ZM3.98208 11.1015C3.67135 10.9055 3.19862 10.5957 2.65887 10.5449L2.56517 11.5405C2.82393 11.5648 3.09074 11.7215 3.44855 11.9472L3.98208 11.1015ZM4.30787 11.2976C4.21283 11.2467 4.10961 11.1819 3.98208 11.1015L3.44856 11.9472C3.56878 12.0231 3.70355 12.1084 3.83614 12.1793L4.30787 11.2976Z" fill="#2B2B2B"/>
        </g>
    </symbol>
</svg>



    